<svg width="20" height="19" viewBox="0 0 20 19" fill="none" xmlns="http://www.w3.org/2000/svg">
<path d="M4.06065 17.3945C3.95863 17.3945 3.8311 17.369 3.72907 17.3435C3.32096 17.1904 3.06589 16.8078 3.06589 16.3742V14.1806C1.63751 13.798 0.566223 12.3441 0.566223 10.6352V5.22769C0.566223 3.23816 2.0201 1.60571 3.80559 1.60571H15.8193C17.6048 1.60571 19.0587 3.23816 19.0587 5.22769V10.6096C19.0587 12.6247 17.6048 14.2571 15.8193 14.2571H7.22351L4.82586 17.0374C4.5963 17.2669 4.34123 17.3945 4.06065 17.3945ZM3.80559 3.13613C2.86183 3.13613 2.09664 4.07988 2.09664 5.22769V10.6096C2.09664 11.783 2.86183 12.7267 3.80559 12.7267C4.2392 12.7267 4.59631 13.0838 4.59631 13.5174V14.9203L6.48381 12.7267H6.84091H15.7683C16.7121 12.7267 17.4773 11.783 17.4773 10.6096V5.22769C17.4773 4.07988 16.7121 3.13613 15.7683 3.13613H3.80559Z" fill="#00C15C"/>
</svg>
