<svg width="37" height="30" viewBox="0 0 37 30" fill="none" xmlns="http://www.w3.org/2000/svg">
<path d="M35.5769 20.8718H35.1026V5.44564C35.1026 2.44769 32.6549 0 29.6569 0H7.34308C4.34513 0 1.89744 2.44769 1.89744 5.44564V20.8718H1.42308C0.645128 20.8718 0 21.5169 0 22.2949V23.9646C0 26.9626 2.44769 29.4103 5.44564 29.4103H31.5544C34.5523 29.4103 37 26.9626 37 23.9646V22.2949C37 21.5169 36.3549 20.8718 35.5769 20.8718ZM4.74359 5.44564C4.74359 4.02256 5.90103 2.84615 7.34308 2.84615H29.6569C31.08 2.84615 32.2564 4.00359 32.2564 5.44564V20.8718H23.0728C22.181 20.8718 21.3462 21.2133 20.72 21.8395L19.9421 22.6174C19.9421 22.6174 19.7333 22.7503 19.6005 22.7503H15.4831C15.3503 22.7503 15.2364 22.6933 15.1415 22.6174L14.3636 21.8395C13.7374 21.2133 12.9026 20.8718 12.0108 20.8718H4.72462V5.44564H4.74359ZM34.1538 23.9836C34.1538 25.4067 32.9964 26.5831 31.5544 26.5831H5.44564C4.02256 26.5831 2.84615 25.4256 2.84615 23.9836V23.7369H12.0297C12.1626 23.7369 12.2764 23.7938 12.3713 23.8697L13.1492 24.6477C13.7754 25.2738 14.6103 25.6154 15.5021 25.6154H19.6195C20.5113 25.6154 21.3462 25.2738 21.9723 24.6477L22.7503 23.8697C22.7503 23.8697 22.959 23.7369 23.0918 23.7369H34.1728V23.9836H34.1538Z" fill="#231F20"/>
<path d="M14.2309 18.5001C14.2309 16.1472 16.1473 14.2308 18.5002 14.2308C20.853 14.2308 22.7694 16.1472 22.7694 18.5001C22.7694 19.278 23.4145 19.9231 24.1925 19.9231C24.9704 19.9231 25.6155 19.278 25.6155 18.5001C25.6155 15.9954 24.3063 13.7944 22.333 12.5231C23.1868 11.5934 23.7181 10.3601 23.7181 9.01287C23.7181 6.12877 21.3843 3.79492 18.5002 3.79492C15.616 3.79492 13.2822 6.12877 13.2822 9.01287C13.2822 10.379 13.8135 11.5934 14.6673 12.5231C12.694 13.7944 11.3848 15.9954 11.3848 18.5001C11.3848 19.278 12.0299 19.9231 12.8078 19.9231C13.5858 19.9231 14.2309 19.278 14.2309 18.5001ZM16.1284 9.01287C16.1284 7.70364 17.1909 6.64108 18.5002 6.64108C19.8094 6.64108 20.8719 7.70364 20.8719 9.01287C20.8719 10.3221 19.8094 11.3847 18.5002 11.3847C17.1909 11.3847 16.1284 10.3221 16.1284 9.01287Z" fill="#231F20"/>
</svg>
