<svg width="21" height="19" viewBox="0 0 21 19" fill="none" xmlns="http://www.w3.org/2000/svg">
<path d="M9.88046 3.52358L10.5229 4.62377L11.1731 3.5281C12.0842 1.99271 13.6282 1.25 15.1884 1.25C16.3272 1.25 17.4212 1.6346 18.2143 2.34796C18.9939 3.0492 19.5241 4.10345 19.4992 5.54773L19.499 5.54773V5.5607C19.499 7.1871 18.5307 8.94155 16.764 11.0281C15.4331 12.5999 13.7354 14.2657 11.8405 16.1249C11.4038 16.5534 10.9565 16.9922 10.5009 17.4425C9.99874 16.9438 9.50685 16.4596 9.02798 15.9883C7.18541 14.1746 5.53556 12.5506 4.23468 11.0169C2.46765 8.93349 1.5 7.18648 1.5 5.5607C1.5 2.77194 3.60102 1.25 5.86778 1.25C7.43448 1.25 8.97248 1.96874 9.88046 3.52358Z" stroke="currentColor" stroke-width="1.5"/>
</svg>
