<svg width="50" height="50" viewBox="0 0 50 50" fill="none" xmlns="http://www.w3.org/2000/svg">
<path d="M33 0H17C14.24 0 12 2.23999 12 5V29C12 31.76 14.24 34 17 34H22V40H17C16.45 40 16 40.45 16 41V44H15C14.45 44 14 44.45 14 45V49C14 49.55 14.45 50 15 50H21C21.55 50 22 49.55 22 49C22 48.45 21.55 48 21 48H16V46H34V48H29C28.45 48 28 48.45 28 49C28 49.55 28.45 50 29 50H35C35.55 50 36 49.55 36 49V45C36 44.45 35.55 44 35 44H34V41C34 40.45 33.55 40 33 40H28V34H33C35.76 34 38 31.76 38 29V5C38 2.23999 35.76 0 33 0ZM32 42V44H18V42H32ZM24 40V34H26V40H24ZM36 29C36 30.65 34.65 32 33 32H17C15.35 32 14 30.65 14 29V22H36V29ZM36 8H31C30.45 8 30 8.45001 30 9C30 9.54999 30.45 10 31 10H36V12H31C30.45 12 30 12.45 30 13C30 13.55 30.45 14 31 14H36V16H31C30.45 16 30 16.45 30 17C30 17.55 30.45 18 31 18H36V20H14V18H19C19.55 18 20 17.55 20 17C20 16.45 19.55 16 19 16H14V14H19C19.55 14 20 13.55 20 13C20 12.45 19.55 12 19 12H14V10H19C19.55 10 20 9.54999 20 9C20 8.45001 19.55 8 19 8H14V6H19C19.55 6 20 5.54999 20 5C20 4.45001 19.55 4 19 4H14.18C14.6 2.83997 15.7 2 17 2H33C34.3 2 35.4 2.83997 35.82 4H31C30.45 4 30 4.45001 30 5C30 5.54999 30.45 6 31 6H36V8Z" fill="#010101"/>
<path d="M9 13C8.44775 13 8 13.4477 8 14V20C8 20.5522 8.44775 21 9 21C9.55225 21 10 20.5522 10 20V14C10 13.4477 9.55225 13 9 13Z" fill="#010101"/>
<path d="M1 13C0.44775 13 0 13.4477 0 14V20C0 20.5522 0.44775 21 1 21C1.55225 21 2 20.5522 2 20V14C2 13.4477 1.55225 13 1 13Z" fill="#010101"/>
<path d="M5 10C4.44775 10 4 10.4477 4 11V23C4 23.5522 4.44775 24 5 24C5.55225 24 6 23.5522 6 23V11C6 10.4477 5.55225 10 5 10Z" fill="#010101"/>
<path d="M41 13C40.4477 13 40 13.4477 40 14V20C40 20.5522 40.4477 21 41 21C41.5523 21 42 20.5522 42 20V14C42 13.4477 41.5523 13 41 13Z" fill="#010101"/>
<path d="M49 13C48.4477 13 48 13.4477 48 14V20C48 20.5522 48.4477 21 49 21C49.5523 21 50 20.5522 50 20V14C50 13.4477 49.5523 13 49 13Z" fill="#010101"/>
<path d="M45 10C44.4477 10 44 10.4477 44 11V23C44 23.5522 44.4477 24 45 24C45.5523 24 46 23.5522 46 23V11C46 10.4477 45.5523 10 45 10Z" fill="#010101"/>
<path d="M25 50C25.5523 50 26 49.5523 26 49C26 48.4477 25.5523 48 25 48C24.4477 48 24 48.4477 24 49C24 49.5523 24.4477 50 25 50Z" fill="#010101"/>
</svg>
