<svg width="50" height="50" viewBox="0 0 50 50" fill="none" xmlns="http://www.w3.org/2000/svg">
<path d="M49 4H47V1C47 0.45001 46.55 0 46 0H36C35.45 0 35 0.45001 35 1V4H31V1C31 0.45001 30.55 0 30 0H20C19.45 0 19 0.45001 19 1V4H15V1C15 0.45001 14.55 0 14 0H4C3.45001 0 3 0.45001 3 1V4H1C0.45001 4 0 4.45001 0 5V49C0 49.55 0.45001 50 1 50H49C49.55 50 50 49.55 50 49V37C50 36.45 49.55 36 49 36C48.45 36 48 36.45 48 37V44H46V22H48V29C48 29.55 48.45 30 49 30C49.55 30 50 29.55 50 29V5C50 4.45001 49.55 4 49 4ZM37 2H45V4H37V2ZM21 2H29V4H21V2ZM5 2H13V4H5V2ZM48 20H45C44.45 20 44 20.45 44 21V45C44 45.55 44.45 46 45 46H48V48H2V18H48V20ZM48 16H2V6H48V16Z" fill="#010101"/>
<path d="M7 14C8.6543 14 10 12.6543 10 11C10 9.3457 8.6543 8 7 8C5.3457 8 4 9.3457 4 11C4 12.6543 5.3457 14 7 14ZM7 10C7.55127 10 8 10.4482 8 11C8 11.5518 7.55127 12 7 12C6.44873 12 6 11.5518 6 11C6 10.4482 6.44873 10 7 10Z" fill="#010101"/>
<path d="M15 14C16.6543 14 18 12.6543 18 11C18 9.3457 16.6543 8 15 8C13.3457 8 12 9.3457 12 11C12 12.6543 13.3457 14 15 14ZM15 10C15.5513 10 16 10.4482 16 11C16 11.5518 15.5513 12 15 12C14.4487 12 14 11.5518 14 11C14 10.4482 14.4487 10 15 10Z" fill="#010101"/>
<path d="M43 14C44.6543 14 46 12.6543 46 11C46 9.3457 44.6543 8 43 8C41.3457 8 40 9.3457 40 11C40 12.6543 41.3457 14 43 14ZM43 10C43.5513 10 44 10.4482 44 11C44 11.5518 43.5513 12 43 12C42.4487 12 42 11.5518 42 11C42 10.4482 42.4487 10 43 10Z" fill="#010101"/>
<path d="M21 14H37C37.5522 14 38 13.5527 38 13V9C38 8.44727 37.5522 8 37 8H21C20.4477 8 20 8.44727 20 9V13C20 13.5527 20.4477 14 21 14ZM22 10H36V12H22V10Z" fill="#010101"/>
<path d="M11 36H9V25C9 24.4473 8.55225 24 8 24C7.44775 24 7 24.4473 7 25V36H5C4.44775 36 4 36.4473 4 37V41C4 41.5527 4.44775 42 5 42H7V45C7 45.5527 7.44775 46 8 46C8.55225 46 9 45.5527 9 45V42H11C11.5522 42 12 41.5527 12 41V37C12 36.4473 11.5522 36 11 36ZM10 40H6V38H10V40Z" fill="#010101"/>
<path d="M6 22H10C10.5522 22 11 21.5527 11 21C11 20.4473 10.5522 20 10 20H6C5.44775 20 5 20.4473 5 21C5 21.5527 5.44775 22 6 22Z" fill="#010101"/>
<path d="M21 27H19V25C19 24.4473 18.5522 24 18 24C17.4478 24 17 24.4473 17 25V27H15C14.4477 27 14 27.4473 14 28V32C14 32.5527 14.4477 33 15 33H17V45C17 45.5527 17.4478 46 18 46C18.5522 46 19 45.5527 19 45V33H21C21.5522 33 22 32.5527 22 32V28C22 27.4473 21.5522 27 21 27ZM20 31H16V29H20V31Z" fill="#010101"/>
<path d="M16 22H20C20.5522 22 21 21.5527 21 21C21 20.4473 20.5522 20 20 20H16C15.4477 20 15 20.4473 15 21C15 21.5527 15.4477 22 16 22Z" fill="#010101"/>
<path d="M31 31H29V25C29 24.4473 28.5522 24 28 24C27.4478 24 27 24.4473 27 25V31H25C24.4477 31 24 31.4473 24 32V36C24 36.5527 24.4477 37 25 37H27V45C27 45.5527 27.4478 46 28 46C28.5522 46 29 45.5527 29 45V37H31C31.5522 37 32 36.5527 32 36V32C32 31.4473 31.5522 31 31 31ZM30 35H26V33H30V35Z" fill="#010101"/>
<path d="M26 22H30C30.5522 22 31 21.5527 31 21C31 20.4473 30.5522 20 30 20H26C25.4477 20 25 20.4473 25 21C25 21.5527 25.4477 22 26 22Z" fill="#010101"/>
<path d="M41 29H39V25C39 24.4473 38.5522 24 38 24C37.4478 24 37 24.4473 37 25V29H35C34.4477 29 34 29.4473 34 30V34C34 34.5527 34.4477 35 35 35H37V45C37 45.5527 37.4478 46 38 46C38.5522 46 39 45.5527 39 45V35H41C41.5522 35 42 34.5527 42 34V30C42 29.4473 41.5522 29 41 29ZM40 33H36V31H40V33Z" fill="#010101"/>
<path d="M36 22H40C40.5522 22 41 21.5527 41 21C41 20.4473 40.5522 20 40 20H36C35.4477 20 35 20.4473 35 21C35 21.5527 35.4477 22 36 22Z" fill="#010101"/>
<path d="M49 34C49.5523 34 50 33.5523 50 33C50 32.4477 49.5523 32 49 32C48.4477 32 48 32.4477 48 33C48 33.5523 48.4477 34 49 34Z" fill="#010101"/>
</svg>
