<svg width="50" height="50" viewBox="0 0 50 50" fill="none" xmlns="http://www.w3.org/2000/svg">
<path d="M49 0H6C5.44727 0 5 0.44727 5 1V5.09033C2.16687 5.56866 0 8.03277 0 11C0 13.9672 2.16687 16.4313 5 16.9097V19.0903C2.16687 19.5687 0 22.0328 0 25C0 27.9672 2.16687 30.4313 5 30.9097V33.0903C2.16687 33.5687 0 36.0328 0 39C0 41.9672 2.16687 44.4313 5 44.9097V49C5 49.5527 5.44727 50 6 50H32C32.5527 50 33 49.5527 33 49C33 48.4473 32.5527 48 32 48H16V2H48V48H40C39.4473 48 39 48.4473 39 49C39 49.5527 39.4473 50 40 50H49C49.5527 50 50 49.5527 50 49V1C50 0.44727 49.5527 0 49 0ZM2 11C2 9.1413 3.27948 7.58905 5 7.14197V14.858C3.27948 14.411 2 12.8587 2 11ZM2 25C2 23.1413 3.27948 21.5891 5 21.142V28.858C3.27948 28.4109 2 26.8587 2 25ZM2 39C2 37.1413 3.27948 35.5891 5 35.142V42.858C3.27948 42.4109 2 40.8587 2 39ZM14 48H7V35.142C8.72052 35.5891 10 37.1413 10 39C10 39.5527 10.4473 40 11 40C11.5527 40 12 39.5527 12 39C12 36.0328 9.83313 33.5687 7 33.0903V21.142C8.72052 21.5891 10 23.1413 10 25C10 25.5527 10.4473 26 11 26C11.5527 26 12 25.5527 12 25C12 22.0328 9.83313 19.5687 7 19.0903V7.14197C8.72052 7.58905 10 9.1413 10 11C10 11.5527 10.4473 12 11 12C11.5527 12 12 11.5527 12 11C12 8.03278 9.83313 5.56866 7 5.09033V2H14V48Z" fill="#010101"/>
<path d="M21 39C20.4473 39 20 39.4473 20 40V42C20 44.2061 21.794 46 24 46C26.206 46 28 44.2061 28 42V35.8672C31.9736 35.1572 35 31.6748 35 27.5C35 26.9473 34.5527 26.5 34 26.5C33.4473 26.5 33 26.9473 33 27.5C33 30.5684 30.8633 33.1465 28 33.8252V16.0078L32.7217 11.6231C33.5342 10.8682 34 9.79981 34 8.69141V8C34 5.79395 32.206 4 30 4C27.794 4 26 5.79395 26 8V15.1357L20.7158 20.042C18.9902 21.6445 18 23.9141 18 26.2705V27.5C18 32.0186 21.5449 35.7256 26 35.9854V42C26 43.1025 25.1025 44 24 44C22.8975 44 22 43.1025 22 42V40C22 39.4473 21.5527 39 21 39ZM28 8C28 6.89746 28.8975 6 30 6C31.1025 6 32 6.89746 32 8V8.69141C32 9.24512 31.7666 9.78028 31.3604 10.1582L28 13.2783V8ZM20 27.5V26.2705C20 24.4688 20.7568 22.7324 22.0772 21.5068L26 17.8643V33.9814C22.6484 33.7246 20 30.916 20 27.5Z" fill="#010101"/>
<path d="M38 26H45C45.5527 26 46 25.5527 46 25C46 24.4473 45.5527 24 45 24H38C37.4473 24 37 24.4473 37 25C37 25.5527 37.4473 26 38 26Z" fill="#010101"/>
<path d="M38 21H45C45.5527 21 46 20.5527 46 20C46 19.4473 45.5527 19 45 19H38C37.4473 19 37 19.4473 37 20C37 20.5527 37.4473 21 38 21Z" fill="#010101"/>
<path d="M38 16H45C45.5527 16 46 15.5527 46 15C46 14.4473 45.5527 14 45 14H38C37.4473 14 37 14.4473 37 15C37 15.5527 37.4473 16 38 16Z" fill="#010101"/>
<path d="M38 11H45C45.5527 11 46 10.5527 46 10C46 9.44727 45.5527 9 45 9H38C37.4473 9 37 9.44727 37 10C37 10.5527 37.4473 11 38 11Z" fill="#010101"/>
<path d="M38 31H45C45.5527 31 46 30.5527 46 30C46 29.4473 45.5527 29 45 29H38C37.4473 29 37 29.4473 37 30C37 30.5527 37.4473 31 38 31Z" fill="#010101"/>
<path d="M38 36H45C45.5527 36 46 35.5527 46 35C46 34.4473 45.5527 34 45 34H38C37.4473 34 37 34.4473 37 35C37 35.5527 37.4473 36 38 36Z" fill="#010101"/>
<path d="M46 40C46 39.4473 45.5527 39 45 39H38C37.4473 39 37 39.4473 37 40C37 40.5527 37.4473 41 38 41H45C45.5527 41 46 40.5527 46 40Z" fill="#010101"/>
<path d="M36 50C36.5523 50 37 49.5523 37 49C37 48.4477 36.5523 48 36 48C35.4477 48 35 48.4477 35 49C35 49.5523 35.4477 50 36 50Z" fill="#010101"/>
</svg>
