<svg width="50" height="50" viewBox="0 0 50 50" fill="none" xmlns="http://www.w3.org/2000/svg">
<path d="M19 17.9995C20.6543 17.9995 22 16.6538 22 14.9995V8.69273L28 6.44273V8.99955H27C25.3457 8.99955 24 10.3452 24 11.9995C24 13.6538 25.3457 14.9995 27 14.9995C28.6543 14.9995 30 13.6538 30 11.9995V0.999546C30 0.309646 29.2968 -0.179674 28.6489 0.0630159L20.6489 3.06302C20.2588 3.2095 20 3.58255 20 3.99954V11.9995H19C17.3457 11.9995 16 13.3452 16 14.9995C16 16.6538 17.3457 17.9995 19 17.9995ZM28 11.9995C28 12.5508 27.5513 12.9995 27 12.9995C26.4487 12.9995 26 12.5508 26 11.9995C26 11.4483 26.4487 10.9995 27 10.9995H28V11.9995ZM28 2.44242V4.30637L22 6.55637V4.69242L28 2.44242ZM19 13.9995H20V14.9995C20 15.5508 19.5513 15.9995 19 15.9995C18.4487 15.9995 18 15.5508 18 14.9995C18 14.4483 18.4487 13.9995 19 13.9995Z" fill="black"/>
<path d="M13 13C13.5527 13 14 12.5522 14 12V4C14 3.44775 13.5527 3 13 3C12.4473 3 12 3.44775 12 4V12C12 12.5522 12.4473 13 13 13Z" fill="black"/>
<path d="M9 16C9.55273 16 10 15.5522 10 15V1C10 0.44775 9.55273 0 9 0C8.44727 0 8 0.44775 8 1V15C8 15.5522 8.44727 16 9 16Z" fill="black"/>
<path d="M5 13C5.55273 13 6 12.5522 6 12V4C6 3.44775 5.55273 3 5 3C4.44727 3 4 3.44775 4 4V12C4 12.5522 4.44727 13 5 13Z" fill="black"/>
<path d="M1 11C1.55273 11 2 10.5522 2 10V6C2 5.44775 1.55273 5 1 5C0.44727 5 0 5.44775 0 6V10C0 10.5522 0.44727 11 1 11Z" fill="black"/>
<path d="M17 11C17.5527 11 18 10.5522 18 10V6C18 5.44775 17.5527 5 17 5C16.4473 5 16 5.44775 16 6V10C16 10.5522 16.4473 11 17 11Z" fill="black"/>
<path d="M37 13C37.5527 13 38 12.5522 38 12V4C38 3.44775 37.5527 3 37 3C36.4473 3 36 3.44775 36 4V12C36 12.5522 36.4473 13 37 13Z" fill="black"/>
<path d="M41 16C41.5527 16 42 15.5522 42 15V1C42 0.44775 41.5527 0 41 0C40.4473 0 40 0.44775 40 1V15C40 15.5522 40.4473 16 41 16Z" fill="black"/>
<path d="M45 13C45.5527 13 46 12.5522 46 12V4C46 3.44775 45.5527 3 45 3C44.4473 3 44 3.44775 44 4V12C44 12.5522 44.4473 13 45 13Z" fill="black"/>
<path d="M49 5C48.4473 5 48 5.44775 48 6V10C48 10.5522 48.4473 11 49 11C49.5527 11 50 10.5522 50 10V6C50 5.44775 49.5527 5 49 5Z" fill="black"/>
<path d="M33 11C33.5527 11 34 10.5522 34 10V6C34 5.44775 33.5527 5 33 5C32.4473 5 32 5.44775 32 6V10C32 10.5522 32.4473 11 33 11Z" fill="black"/>
<path d="M49 20H39C38.45 20 38 20.45 38 21C38 21.55 38.45 22 39 22H48V48H46V33C46 32.45 45.55 32 45 32H5C4.45001 32 4 32.45 4 33V48H2V22H31C31.55 22 32 21.55 32 21C32 20.45 31.55 20 31 20H1C0.45001 20 0 20.45 0 21V49C0 49.55 0.45001 50 1 50H49C49.55 50 50 49.55 50 49V21C50 20.45 49.55 20 49 20ZM12 48H6V34H10V41C10 41.55 10.45 42 11 42H12V48ZM12 34H14V40H12V34ZM20 48H14V42H15C15.55 42 16 41.55 16 41V34H18V41C18 41.55 18.45 42 19 42H20V48ZM20 34H22V40H20V34ZM28 48H22V42H23C23.55 42 24 41.55 24 41V34H26V41C26 41.55 26.45 42 27 42H28V48ZM28 34H30V40H28V34ZM36 48H30V42H31C31.55 42 32 41.55 32 41V34H34V41C34 41.55 34.45 42 35 42H36V48ZM36 34H38V40H36V34ZM44 48H38V42H39C39.55 42 40 41.55 40 41V34H44V48Z" fill="black"/>
<path d="M4 27C4 28.6543 5.3457 30 7 30C8.6543 30 10 28.6543 10 27C10 25.3457 8.6543 24 7 24C5.3457 24 4 25.3457 4 27ZM8 27C8 27.5513 7.55127 28 7 28C6.44873 28 6 27.5513 6 27C6 26.4487 6.44873 26 7 26C7.55127 26 8 26.4487 8 27Z" fill="black"/>
<path d="M12 27C12 28.6543 13.3457 30 15 30C16.6543 30 18 28.6543 18 27C18 25.3457 16.6543 24 15 24C13.3457 24 12 25.3457 12 27ZM16 27C16 27.5513 15.5513 28 15 28C14.4487 28 14 27.5513 14 27C14 26.4487 14.4487 26 15 26C15.5513 26 16 26.4487 16 27Z" fill="black"/>
<path d="M43 24H23C21.35 24 20 25.35 20 27C20 28.65 21.35 30 23 30H43C44.65 30 46 28.65 46 27C46 25.35 44.65 24 43 24ZM26 28H23C22.45 28 22 27.55 22 27C22 26.45 22.45 26 23 26H26V28ZM30 28H28V26H30V28ZM43 28H32V26H43C43.55 26 44 26.45 44 27C44 27.55 43.55 28 43 28Z" fill="black"/>
<path d="M35 22C35.5523 22 36 21.5523 36 21C36 20.4477 35.5523 20 35 20C34.4477 20 34 20.4477 34 21C34 21.5523 34.4477 22 35 22Z" fill="black"/>
</svg>
