<svg width="32" height="31" viewBox="0 0 32 31" fill="none" xmlns="http://www.w3.org/2000/svg">
<path d="M24.2925 0H7.68536C5.77855 0.00877153 3.95267 0.77165 2.60642 2.12205C1.26016 3.47246 0.502904 5.30068 0.5 7.2075V23.8146C0.508772 25.7214 1.27165 27.5473 2.62205 28.8936C3.97246 30.2398 5.80068 30.9971 7.7075 31H24.3146C26.2214 30.9912 28.0473 30.2283 29.3936 28.8779C30.7398 27.5275 31.4971 25.6993 31.5 23.7925V7.18536C31.4912 5.27855 30.7283 3.45267 29.3779 2.10642C28.0275 0.760161 26.1993 0.00290441 24.2925 0ZM29.2857 23.7925C29.2857 24.4482 29.1566 25.0975 28.9056 25.7033C28.6547 26.3091 28.2869 26.8596 27.8232 27.3232C27.3596 27.7869 26.8091 28.1547 26.2033 28.4056C25.5975 28.6566 24.9482 28.7857 24.2925 28.7857H7.68536C6.36491 28.7799 5.10055 28.2512 4.16893 27.3154C3.2373 26.3797 2.71427 25.113 2.71429 23.7925V7.18536C2.72014 5.86491 3.24879 4.60055 4.18457 3.66893C5.12035 2.7373 6.38704 2.21427 7.7075 2.21429H24.3146C25.6351 2.22014 26.8994 2.74879 27.8311 3.68457C28.7627 4.62035 29.2857 5.88704 29.2857 7.2075V23.7925Z" fill="black"/>
<path d="M11.905 6.643H11.5728V5.53585C11.5728 5.24222 11.4562 4.96062 11.2485 4.75299C11.0409 4.54536 10.7593 4.42871 10.4657 4.42871C10.172 4.42871 9.89044 4.54536 9.68281 4.75299C9.47518 4.96062 9.35854 5.24222 9.35854 5.53585V6.643H9.02639C8.23359 6.643 7.47325 6.95794 6.91265 7.51854C6.35205 8.07914 6.03711 8.83947 6.03711 9.63228V11.4037C6.03711 12.1965 6.35205 12.9569 6.91265 13.5175C7.47325 14.0781 8.23359 14.393 9.02639 14.393H9.35854V25.4644C9.35854 25.7581 9.47518 26.0397 9.68281 26.2473C9.89044 26.4549 10.172 26.5716 10.4657 26.5716C10.7593 26.5716 11.0409 26.4549 11.2485 26.2473C11.4562 26.0397 11.5728 25.7581 11.5728 25.4644V14.393H11.905C12.6978 14.393 13.4581 14.0781 14.0187 13.5175C14.5793 12.9569 14.8943 12.1965 14.8943 11.4037V9.63228C14.8943 8.83947 14.5793 8.07914 14.0187 7.51854C13.4581 6.95794 12.6978 6.643 11.905 6.643ZM12.68 11.4037C12.68 11.6093 12.5983 11.8064 12.453 11.9517C12.3076 12.0971 12.1105 12.1787 11.905 12.1787H9.02639C8.82085 12.1787 8.62373 12.0971 8.47839 11.9517C8.33305 11.8064 8.25139 11.6093 8.25139 11.4037V9.63228C8.25139 9.42674 8.33305 9.22962 8.47839 9.08428C8.62373 8.93893 8.82085 8.85728 9.02639 8.85728H11.905C12.1105 8.85728 12.3076 8.93893 12.453 9.08428C12.5983 9.22962 12.68 9.42674 12.68 9.63228V11.4037Z" fill="black"/>
<path d="M22.9753 15.5001H22.6431V5.53585C22.6431 5.24222 22.5265 4.96062 22.3189 4.75299C22.1112 4.54536 21.8296 4.42871 21.536 4.42871C21.2424 4.42871 20.9608 4.54536 20.7531 4.75299C20.5455 4.96062 20.4289 5.24222 20.4289 5.53585V15.5001H20.0967C19.3039 15.5001 18.5436 15.8151 17.983 16.3757C17.4224 16.9363 17.1074 17.6966 17.1074 18.4894V20.2609C17.1074 21.0537 17.4224 21.814 17.983 22.3746C18.5436 22.9352 19.3039 23.2501 20.0967 23.2501H20.4289V25.4644C20.4289 25.7581 20.5455 26.0397 20.7531 26.2473C20.9608 26.4549 21.2424 26.5716 21.536 26.5716C21.8296 26.5716 22.1112 26.4549 22.3189 26.2473C22.5265 26.0397 22.6431 25.7581 22.6431 25.4644V23.2501H22.9753C23.7681 23.2501 24.5284 22.9352 25.089 22.3746C25.6496 21.814 25.9646 21.0537 25.9646 20.2609V18.4894C25.9646 17.6966 25.6496 16.9363 25.089 16.3757C24.5284 15.8151 23.7681 15.5001 22.9753 15.5001ZM23.7503 20.2609C23.7503 20.3626 23.7302 20.4634 23.6913 20.5574C23.6523 20.6515 23.5953 20.7369 23.5233 20.8089C23.4513 20.8808 23.3659 20.9379 23.2719 20.9769C23.1778 21.0158 23.0771 21.0359 22.9753 21.0359H20.0967C19.8912 21.0359 19.694 20.9542 19.5487 20.8089C19.4034 20.6635 19.3217 20.4664 19.3217 20.2609V18.4894C19.3217 18.2839 19.4034 18.0868 19.5487 17.9414C19.694 17.7961 19.8912 17.7144 20.0967 17.7144H22.9753C23.0771 17.7144 23.1778 17.7345 23.2719 17.7734C23.3659 17.8124 23.4513 17.8695 23.5233 17.9414C23.5953 18.0134 23.6523 18.0988 23.6913 18.1928C23.7302 18.2869 23.7503 18.3877 23.7503 18.4894V20.2609Z" fill="black"/>
</svg>
