<svg width="64" height="20" viewBox="0 0 64 20" fill="none" xmlns="http://www.w3.org/2000/svg">
<path d="M63.1603 1.23012C63.1021 1.09712 63.0023 0.972431 62.8693 0.864368C62.7612 0.756305 62.6366 0.689805 62.4869 0.656554C62.3373 0.623304 62.2126 0.614992 62.1046 0.614992H59.91C59.7105 0.614992 59.5609 0.623304 59.4529 0.648241C59.3448 0.673179 59.2534 0.723056 59.1785 0.797869C59.1037 0.872682 59.0372 0.980743 58.9707 1.13868C58.9042 1.28831 58.8294 1.48781 58.7297 1.73719L58.3057 3.07551C58.0397 2.69313 57.7322 2.33569 57.3747 2.0115C57.0173 1.68731 56.6266 1.40468 56.186 1.16362C55.7455 0.930869 55.2716 0.739679 54.7396 0.606679C54.2159 0.465365 53.6507 0.398865 53.0356 0.398865C51.6972 0.398865 50.4504 0.648241 49.2783 1.13868C48.1062 1.63743 47.0921 2.31906 46.2276 3.18357C45.3631 4.04807 44.6815 5.07052 44.1827 6.24259C43.6839 7.41466 43.4346 8.68648 43.4346 10.0497C43.4346 10.9558 43.5509 11.8203 43.7754 12.6516C43.9998 13.4828 44.324 14.2559 44.7396 14.9708C45.1553 15.6856 45.654 16.334 46.2359 16.9242C46.8178 17.5061 47.4578 18.0048 48.1727 18.4288C48.8876 18.8444 49.6524 19.1686 50.467 19.393C51.2899 19.6175 52.1378 19.7339 53.0356 19.7339C53.5343 19.7339 54.0164 19.6757 54.482 19.551C54.9475 19.4263 55.388 19.2684 55.7953 19.0689C56.2026 18.8694 56.5767 18.6366 56.9175 18.3872C57.2583 18.1295 57.5576 17.8718 57.8236 17.6058L58.0148 18.2709C58.073 18.4371 58.1312 18.595 58.181 18.7364C58.2309 18.8777 58.2974 19.0024 58.3805 19.0938C58.4553 19.1935 58.5634 19.2684 58.6881 19.3265C58.8128 19.3847 58.9874 19.4097 59.1869 19.4097H62.0879C62.196 19.4097 62.3207 19.393 62.4703 19.3681C62.6199 19.3349 62.7446 19.2684 62.8527 19.1603C62.9857 19.0689 63.0854 18.9525 63.1436 18.8029C63.2018 18.6532 63.2351 18.487 63.2351 18.3207V1.70394C63.2517 1.52937 63.2184 1.37143 63.1603 1.23012ZM57.2916 11.8702C57.0588 12.4354 56.7263 12.9259 56.3107 13.3332C55.8951 13.7488 55.4046 14.073 54.8394 14.3141C54.2741 14.5551 53.6673 14.6715 53.0106 14.6715C52.3706 14.6715 51.7887 14.5551 51.265 14.3141C50.7413 14.073 50.2924 13.7488 49.9184 13.3332C49.5443 12.9176 49.2617 12.4354 49.0539 11.8702C48.8544 11.3049 48.7546 10.6981 48.7546 10.0497C48.7546 9.4263 48.8544 8.81948 49.0539 8.25423C49.2534 7.68897 49.5443 7.18191 49.9184 6.74965C50.2924 6.3174 50.7413 5.97659 51.265 5.72721C51.7887 5.47783 52.3706 5.35315 53.0106 5.35315C53.6673 5.35315 54.2825 5.47783 54.8394 5.72721C55.4046 5.97659 55.8951 6.3174 56.3107 6.74965C56.7263 7.18191 57.0505 7.68066 57.2916 8.25423C57.5243 8.81948 57.6407 9.4263 57.6407 10.0497C57.6407 10.6981 57.5243 11.3049 57.2916 11.8702Z" fill="#202020"/>
<path d="M29.4611 5.36989C29.4611 6.50039 28.9873 7.51452 28.2226 8.23772C28.1478 8.30422 28.0729 8.37072 27.9981 8.4289L25.3547 1.94511C25.2633 1.75392 25.2051 1.57936 25.1802 1.41311C25.2882 1.4048 25.3963 1.39648 25.5044 1.39648H25.6124C27.7404 1.46298 29.4528 3.20862 29.4611 5.36989Z" fill="#202020"/>
<path d="M43.95 1.26319C43.9168 1.42113 43.8669 1.58738 43.8004 1.76194L36.5352 19.185C36.4272 19.3679 36.2942 19.5259 36.1362 19.6505C35.9866 19.7752 35.7539 19.8417 35.4463 19.8417H33.6259C33.2185 19.8417 32.9276 19.7836 32.7613 19.6672C32.5951 19.5508 32.4704 19.3929 32.3873 19.185L28.4056 9.42611C28.5968 9.29311 28.7713 9.14349 28.9459 8.98555C29.9101 8.07117 30.5087 6.78272 30.5087 5.35296C30.5087 2.91739 28.7713 0.889124 26.4688 0.440247H30.0515C30.3175 0.440247 30.5502 0.51506 30.7497 0.656373C30.9492 0.797687 31.0905 1.0055 31.1737 1.26319C31.3482 1.8035 31.5394 2.41032 31.7472 3.08364C31.955 3.75696 32.1712 4.4469 32.4039 5.15346C32.6367 5.86003 32.8611 6.5666 33.0855 7.25654C33.31 7.95479 33.5178 8.59486 33.7007 9.17674C33.8919 9.75861 34.0581 10.274 34.2077 10.7062C34.3574 11.1385 34.4654 11.4461 34.5319 11.6289L37.7655 1.26319C37.8985 0.938999 38.0481 0.722873 38.2144 0.606498C38.3806 0.498434 38.6217 0.440247 38.921 0.440247H42.9359C43.2352 0.440247 43.4513 0.473498 43.6092 0.548311C43.7589 0.623124 43.8669 0.714562 43.9168 0.83925C43.9667 0.963939 43.975 1.10525 43.95 1.26319Z" fill="#202020"/>
<path d="M23.002 2.30249V8.42053C22.8441 8.28753 22.6945 8.14621 22.5615 7.99659C21.938 7.29833 21.5557 6.37564 21.5557 5.36151C21.5557 4.34738 21.938 3.42469 22.5615 2.72643C22.6945 2.5768 22.8441 2.42718 23.002 2.30249Z" fill="#202020"/>
<path d="M23.0025 9.68422V18.6618C23.0025 19.0525 22.8944 19.3434 22.6783 19.5429C22.4621 19.7424 22.1629 19.8422 21.7639 19.8422H18.2643C17.5079 19.8422 17.1338 19.4515 17.1338 18.6701V1.63767H17.1255C17.1255 1.31348 17.2169 1.03085 17.3998 0.798103C17.5827 0.565351 17.8653 0.448975 18.256 0.448975H21.7556C21.8803 0.448975 22.0133 0.473912 22.1546 0.5321C22.2959 0.590288 22.4289 0.673413 22.5536 0.773164C22.67 0.872914 22.7614 0.989291 22.8445 1.11398C22.4455 1.36336 22.0798 1.67092 21.7722 2.02005C20.9742 2.90949 20.5004 4.07325 20.5004 5.35338C20.5004 6.63351 20.9825 7.80558 21.7722 8.68671C22.1296 9.0774 22.537 9.41822 23.0025 9.68422Z" fill="#202020"/>
<path d="M7.24181 20C6.61837 20 5.9783 19.9418 5.33823 19.8337C4.69817 19.7257 4.06641 19.5428 3.46791 19.3017C2.86941 19.0607 2.28753 18.7365 1.74721 18.3541C1.2069 17.9717 0.724768 17.4979 0.300828 16.9493C0.192764 16.8163 0.117951 16.675 0.0680759 16.5254C0.0182006 16.384 -0.00673733 16.2344 0.00157522 16.1014C0.00988777 15.9601 0.0348254 15.8354 0.0847007 15.719C0.134576 15.611 0.209389 15.5112 0.317452 15.4364L0.325764 15.4281L2.30415 13.4497C2.46209 13.3167 2.61172 13.2502 2.74472 13.2502C2.77797 13.2502 2.81122 13.2585 2.84447 13.2668C3.01903 13.325 3.24347 13.4913 3.5261 13.7573C3.80872 14.0399 4.11629 14.2726 4.44048 14.4638C4.76467 14.655 5.08054 14.813 5.3798 14.9293C5.67905 15.0457 5.94505 15.1372 6.1778 15.187C6.41055 15.2369 6.56849 15.2702 6.65993 15.2702C6.85112 15.2702 7.10881 15.2618 7.40806 15.2452C7.71562 15.2286 8.01487 15.1787 8.2975 15.1039C8.58844 15.0208 8.83782 14.8878 9.05394 14.7049C9.27838 14.5137 9.38645 14.2394 9.38645 13.8903C9.38645 13.5827 9.31995 13.3333 9.20357 13.1505C9.07888 12.9676 8.90432 12.8096 8.67988 12.685C8.46375 12.5686 8.18944 12.4522 7.87356 12.3608C7.566 12.2693 7.21687 12.1613 6.82618 12.0366C5.61255 11.7124 4.60673 11.3217 3.82535 10.8728C3.04397 10.4239 2.42053 9.91687 1.97165 9.35993C1.52277 8.81131 1.19858 8.20449 1.02402 7.57274C0.841143 6.93267 0.749705 6.25104 0.749705 5.53616C0.749705 4.71322 0.915955 3.94846 1.24014 3.27514C1.56433 2.60183 2.03815 2.01164 2.64497 1.52951C3.25178 1.04738 3.9916 0.665003 4.83948 0.399001C5.68736 0.133 6.65162 0 7.69069 0C8.32244 0 8.92094 0.0498748 9.46957 0.157938C10.0182 0.266001 10.5502 0.432252 11.049 0.656691C11.5477 0.88113 12.0382 1.17207 12.5203 1.52951C12.9941 1.88695 13.4762 2.3192 13.95 2.80964C14.0997 2.98421 14.1828 3.15877 14.1911 3.30839C14.1911 3.44971 14.0914 3.61596 13.8835 3.79883C13.4845 4.12302 13.1022 4.44721 12.7447 4.76309C12.379 5.07897 12.0049 5.43641 11.6142 5.81879C11.5145 5.90191 11.4064 5.9601 11.3066 5.97672C11.2568 5.98504 11.2152 5.99335 11.1653 5.99335C11.1071 5.99335 11.0573 5.98504 11.0074 5.96841C10.9076 5.94347 10.8079 5.8936 10.7165 5.83541C10.625 5.76891 10.5419 5.6941 10.4671 5.59435C10.093 5.17872 9.66907 4.89609 9.19526 4.75478C8.72976 4.61346 8.28919 4.54696 7.88187 4.54696C7.3665 4.54696 6.94256 4.6384 6.63499 4.82128C6.30249 5.01247 6.14455 5.32003 6.16949 5.71903C6.19443 6.01829 6.30249 6.25104 6.5103 6.41729C6.69318 6.57523 6.92593 6.69991 7.20025 6.79135C7.46625 6.88279 7.74887 6.95761 8.03981 7.01579C8.32244 7.07398 8.58844 7.13217 8.82951 7.20698C9.73557 7.49792 10.5751 7.82211 11.3316 8.16292C12.0797 8.50374 12.7364 8.92768 13.2933 9.41812C13.842 9.90856 14.2659 10.5071 14.5735 11.1887C14.8727 11.8703 15.0307 12.7265 15.0307 13.7074C15.0307 14.6966 14.8312 15.586 14.4405 16.3591C14.0498 17.1322 13.5012 17.7972 12.8112 18.3209C12.1213 18.8529 11.29 19.2602 10.3507 19.5428C9.36982 19.8504 8.33907 20 7.24181 20Z" fill="#202020"/>
<path d="M29.4609 5.36981C29.4609 6.50032 28.9871 7.51445 28.2223 8.23764C28.1475 8.30414 28.0727 8.37064 27.9979 8.42883C27.3163 8.97746 26.4518 9.31827 25.5041 9.31827C24.5482 9.31827 23.6837 8.97746 23.0021 8.42052C22.8441 8.28752 22.6945 8.1462 22.5615 7.99658C21.938 7.29832 21.5557 6.37563 21.5557 5.3615C21.5557 4.34737 21.938 3.42467 22.5615 2.72642C22.6945 2.57679 22.8441 2.42717 23.0021 2.30248C23.6006 1.80373 24.3487 1.48785 25.1799 1.42135C25.288 1.41304 25.3961 1.40472 25.5041 1.40472H25.6122C27.7402 1.46291 29.4526 3.20855 29.4609 5.36981Z" fill="white"/>
<path d="M29.4609 5.36981C29.4609 6.50032 28.9871 7.51445 28.2223 8.23764C28.1475 8.30414 28.0727 8.37064 27.9979 8.42883C27.3163 8.97746 26.4518 9.31827 25.5041 9.31827C24.5482 9.31827 23.6837 8.97746 23.0021 8.42052C22.8441 8.28752 22.6945 8.1462 22.5615 7.99658C21.938 7.29832 21.5557 6.37563 21.5557 5.3615C21.5557 4.34737 21.938 3.42467 22.5615 2.72642C22.6945 2.57679 22.8441 2.42717 23.0021 2.30248C23.6006 1.80373 24.3487 1.48785 25.1799 1.42135C25.288 1.41304 25.3961 1.40472 25.5041 1.40472H25.6122C27.7402 1.46291 29.4526 3.20855 29.4609 5.36981Z" fill="#00C15C"/>
</svg>
