<svg width="32" height="32" viewBox="0 0 32 32" fill="none" xmlns="http://www.w3.org/2000/svg">
<path d="M16 0C12.8355 0 9.74207 0.938384 7.11088 2.69649C4.4797 4.45459 2.42894 6.95345 1.21793 9.87706C0.00693253 12.8007 -0.309921 16.0177 0.307443 19.1214C0.924806 22.2251 2.44866 25.0761 4.6863 27.3137C6.92394 29.5513 9.77487 31.0752 12.8786 31.6926C15.9823 32.3099 19.1993 31.9931 22.1229 30.7821C25.0466 29.5711 27.5454 27.5203 29.3035 24.8891C31.0616 22.2579 32 19.1645 32 16C32 11.7565 30.3143 7.68687 27.3137 4.68629C24.3131 1.68571 20.2435 0 16 0ZM16 29.7143C13.2876 29.7143 10.6361 28.91 8.38076 27.403C6.12545 25.8961 4.36766 23.7542 3.32966 21.2482C2.29166 18.7423 2.02007 15.9848 2.54924 13.3245C3.07841 10.6642 4.38456 8.22051 6.30254 6.30253C8.22052 4.38456 10.6642 3.0784 13.3245 2.54923C15.9848 2.02006 18.7423 2.29165 21.2482 3.32965C23.7542 4.36765 25.8961 6.12545 27.403 8.38075C28.91 10.6361 29.7143 13.2876 29.7143 16C29.7143 19.6373 28.2694 23.1255 25.6975 25.6975C23.1255 28.2694 19.6373 29.7143 16 29.7143Z" fill="black"/>
<path d="M22.1486 9.23234L17.8057 7.43806C17.4844 7.30196 17.1341 7.24844 16.7867 7.28237C16.4394 7.31631 16.1061 7.43662 15.8171 7.63234C15.521 7.83385 15.2786 8.10482 15.1113 8.42158C14.9439 8.73833 14.8567 9.09124 14.8571 9.44949V15.4952C14.1669 15.0797 13.3771 14.8586 12.5714 14.8552C11.6673 14.8552 10.7834 15.1233 10.0317 15.6256C9.27991 16.1279 8.69398 16.8419 8.34798 17.6772C8.00198 18.5125 7.91145 19.4317 8.08784 20.3185C8.26423 21.2052 8.69962 22.0198 9.33894 22.6591C9.97827 23.2984 10.7928 23.7338 11.6796 23.9102C12.5664 24.0866 13.4855 23.9961 14.3208 23.6501C15.1562 23.3041 15.8701 22.7181 16.3724 21.9664C16.8748 21.2146 17.1429 20.3308 17.1429 19.4266V9.60948L21.3257 11.3352C21.4665 11.4099 21.6213 11.4543 21.7802 11.4656C21.9391 11.4769 22.0986 11.4549 22.2485 11.4009C22.3984 11.3469 22.5354 11.2622 22.6506 11.1521C22.7659 11.0421 22.8568 10.9092 22.9176 10.7619C22.9784 10.6147 23.0078 10.4563 23.0038 10.297C22.9998 10.1378 22.9626 9.98107 22.8945 9.83704C22.8264 9.69301 22.7289 9.56481 22.6083 9.46067C22.4877 9.35654 22.3467 9.27876 22.1943 9.23234H22.1486ZM12.5714 21.7123C12.1194 21.7123 11.6774 21.5783 11.3016 21.3271C10.9257 21.076 10.6327 20.719 10.4597 20.3013C10.2867 19.8837 10.2414 19.4241 10.3296 18.9807C10.4178 18.5373 10.6355 18.13 10.9552 17.8104C11.2749 17.4907 11.6821 17.273 12.1255 17.1848C12.5689 17.0966 13.0285 17.1419 13.4461 17.3149C13.8638 17.4879 14.2208 17.7809 14.4719 18.1568C14.7231 18.5326 14.8571 18.9746 14.8571 19.4266C14.8571 20.0328 14.6163 20.6142 14.1877 21.0429C13.759 21.4715 13.1776 21.7123 12.5714 21.7123Z" fill="black"/>
</svg>
