<svg width="27" height="27" viewBox="0 0 27 27" fill="none" xmlns="http://www.w3.org/2000/svg">
<path d="M18.0634 11.8015C18.0634 14.3104 16.0415 16.3451 13.5475 16.3451C11.0535 16.3451 9.03174 14.3104 9.03174 11.8015C9.03174 9.29262 11.0536 7.25879 13.5476 7.25879C16.0416 7.25879 18.0634 9.29262 18.0634 11.8015Z" fill="#222222"/>
<path fill-rule="evenodd" clip-rule="evenodd" d="M13.5 27C6.03106 27 0 20.933 0 13.5C0 6.02679 6.071 0 13.5 0C20.929 0 27 6.06697 27 13.5C27 20.933 20.929 27 13.5 27ZM13.5 2.37053C7.34911 2.37053 2.39645 7.35268 2.39645 13.5C2.39645 16.2892 3.43786 18.8522 5.15159 20.8138C7.37564 18.0448 10.3318 16.3451 13.5475 16.3451C16.7828 16.2985 19.6881 17.978 21.906 20.7637C23.5854 18.8144 24.6035 16.276 24.6035 13.5C24.6035 7.35268 19.6109 2.37053 13.5 2.37053Z" fill="#222222"/>
</svg>
